<svg xmlns="http://www.w3.org/2000/svg" viewBox="0 0 456.76 165.61"><defs><style>.cls-1{fill:#fff;}</style></defs><g id="Layer_2" data-name="Layer 2"><g id="Layer_1-2" data-name="Layer 1"><path class="cls-1" d="M27.3,0H0V136.73H32.07q25.2,0,35.24-14.86t10-54.15q0-38.56-10-53.14T27.3,0Zm18,115q-3.61,6.85-12.92,6.84H27.54V15H32.4q9.39,0,13,11.59T49,69.11q0,39-3.63,45.89Z"/><rect class="cls-1" x="82.62" y="0.08" width="25.84" height="23.89"/><rect class="cls-1" x="82.62" y="31.99" width="25.84" height="104.74"/><path class="cls-1" d="M151.72,77.63Q139.4,66.86,137,62.84a16,16,0,0,1-2.39-8.31,7.08,7.08,0,0,1,2.07-5.48,7.4,7.4,0,0,1,5.22-1.91,6.83,6.83,0,0,1,5.84,2.92,12.83,12.83,0,0,1,2.1,7.61h20.57q0-13-7.36-20t-21.31-7q-13,0-21,6.85t-8,18.36q0,11.12,3.15,18.65t15,17.75a178.78,178.78,0,0,1,13.42,12.4c2.71,2.91,4.09,5.62,4.09,8.11a8.48,8.48,0,0,1-2,6.09c-1.31,1.35-3.25,2-5.84,2a7.35,7.35,0,0,1-6.11-2.57c-1.37-1.74-2.07-4.49-2.07-8.26h-20.9q0,13.83,7.49,20.77t22.32,6.93q13.77,0,21.67-7.43c5.26-4.93,7.89-11.85,7.89-20.7a29.46,29.46,0,0,0-4.16-15.53Q162.58,87.12,151.72,77.63Z"/><path class="cls-1" d="M452.57,94.05q-4.19-6.93-15-16.42-12.3-10.77-14.69-14.79a16,16,0,0,1-2.39-8.31,7.13,7.13,0,0,1,2.06-5.48,7.4,7.4,0,0,1,5.23-1.91,6.82,6.82,0,0,1,5.83,2.92,12.74,12.74,0,0,1,2.1,7.61h20.58q0-13-7.37-20t-21.3-7q-13.06,0-21,6.85t-8,18.36q0,11.12,3.17,18.65t15,17.75a178.49,178.49,0,0,1,13.4,12.4q4.1,4.39,4.1,8.11a8.46,8.46,0,0,1-2,6.09c-1.29,1.35-3.24,2-5.84,2a7.33,7.33,0,0,1-6.1-2.57c-1.39-1.74-2.07-4.49-2.07-8.26h-20.9q0,13.83,7.49,20.77t22.32,6.93q13.76,0,21.66-7.43c5.27-4.93,7.91-11.85,7.91-20.7A29.6,29.6,0,0,0,452.57,94.05Z"/><path class="cls-1" d="M225,110.65h-9.68c-.38,4.51-1.12,7.44-2.23,8.81a6.12,6.12,0,0,1-5.06,2q-5.5,0-7.12-6.53T199.3,84.11q0-21.14,1.42-29.22t7-8.08a4.93,4.93,0,0,1,4.75,2.8q1.41,2.8,1.41,12.35h11.28a57.79,57.79,0,0,1,9.47-14.18,24.46,24.46,0,0,0-5.48-9.39q-7.49-7.77-21.5-7.77-17.6,0-26.33,13.48t-8.74,40q0,26.66,8.43,40.13t24.7,13.5q14.41,0,21.62-6.61a20.31,20.31,0,0,0,5.31-8.26A57,57,0,0,1,225,110.65Z"/><path class="cls-1" d="M334.85,86.47a57.4,57.4,0,0,1-7.26,28q2.34,8.86,6.93,13.56,6.19,6.25,17.13,6.27A35.24,35.24,0,0,0,363,132.64q4.86-1.66,6.48-4.41c.1,1,.18,2,.24,2.79s.08,1.61.08,2.31q0,8.17-3.68,12.43c-2.46,2.83-6.27,4.26-11.46,4.26a60.87,60.87,0,0,1-11.26-1.18A50.16,50.16,0,0,1,333.27,146l-3.17,14.3a54.36,54.36,0,0,0,13,4,76.56,76.56,0,0,0,14.09,1.31q16.76,0,26.57-8.43t9.8-23.71V32H367.85v2.5a24.68,24.68,0,0,0-6.93-3,33.07,33.07,0,0,0-8.05-.89A23,23,0,0,0,337,36.45q-6.53,5.84-9.35,16.12c-.35,1.19-.67,2.64-1,4.26a57.35,57.35,0,0,1,8.22,29.64m33,30.82a10.86,10.86,0,0,1-3.32,1.86,14.11,14.11,0,0,1-4.38.57,7,7,0,0,1-5.46-2.11c-1.27-1.41-2.06-3.7-2.39-6.88q-.49-5-.82-12.47c-.2-5-.32-10.26-.32-15.88,0-3.57.09-7.65.28-12.27s.48-8.92.86-12.92,1.25-6.52,2.59-7.9,3.46-2.07,6.32-2.07a16,16,0,0,1,3.52.45,11.46,11.46,0,0,1,3.12,1.09Z"/><path class="cls-1" d="M251.48,113.59l-5.33,5.77a45.26,45.26,0,0,0,9.46,6.92l3.85-6.86A37.16,37.16,0,0,1,251.48,113.59Z"/><path class="cls-1" d="M303.82,59.73,309.17,54a45.53,45.53,0,0,0-9.58-7.2l-3.78,6.89A37.78,37.78,0,0,1,303.82,59.73Z"/><path class="cls-1" d="M297.82,66.19l5.32-5.72a36.06,36.06,0,0,0-7.81-5.92l-3.75,6.85A28.78,28.78,0,0,1,297.82,66.19Z"/><path class="cls-1" d="M257.46,107.13l-5.3,5.73a37.17,37.17,0,0,0,7.79,5.69l3.83-6.81A29.52,29.52,0,0,1,257.46,107.13Z"/><path class="cls-1" d="M277.36,66.34a20,20,0,0,0-13.92,34.46l-.07-.06-5.23,5.65a27.5,27.5,0,0,0,6.13,4.48l3.78-6.73h0a20,20,0,0,0,23.83-31.56l5.26-5.66a28.21,28.21,0,0,0-6-4.65L287.39,69A19.94,19.94,0,0,0,277.36,66.34Z"/><path class="cls-1" d="M249.6,86.39a27.67,27.67,0,0,0,8.54,20l5.23-5.65.07.06A20,20,0,0,1,287.39,69l3.71-6.77a27.76,27.76,0,0,0-41.5,24.12Z"/><path class="cls-1" d="M297.42,86.39a20,20,0,0,1-29.37,17.75h0l-3.78,6.73a27.75,27.75,0,0,0,32.87-43.95l-5.26,5.66A20,20,0,0,1,297.42,86.39Z"/><path class="cls-1" d="M240.79,86.39a36.49,36.49,0,0,0,11.37,26.47l5.3-5.73A28.75,28.75,0,0,1,291.58,61.4l3.75-6.85a36.54,36.54,0,0,0-54.54,31.84Z"/><path class="cls-1" d="M306.13,86.39a28.75,28.75,0,0,1-42.35,25.35L260,118.55a36.56,36.56,0,0,0,43.19-58.08l-5.32,5.72A28.65,28.65,0,0,1,306.13,86.39Z"/><path class="cls-1" d="M315,86.39a37.57,37.57,0,0,1-55.49,33l-3.85,6.86A45.42,45.42,0,0,0,309.17,54l-5.35,5.75A37.44,37.44,0,0,1,315,86.39Z"/><path class="cls-1" d="M231.92,86.39a45.31,45.31,0,0,0,14.23,33l5.33-5.77A37.55,37.55,0,0,1,295.81,53.7l3.78-6.89a45.41,45.41,0,0,0-67.67,39.61Z"/><path class="cls-1" d="M315.07,47.63l-5.22,5.61a46.42,46.42,0,0,1-54.73,73.91L251.26,134a54.2,54.2,0,0,0,63.81-86.4Z"/><path class="cls-1" d="M230.92,86.39A46.41,46.41,0,0,1,300.07,45.9l3.68-6.73a54,54,0,0,0-25.6-6.91h-.88A54.29,54.29,0,0,0,223.05,86h0v.52a54.11,54.11,0,0,0,17.06,39.41l5.36-5.79A46.3,46.3,0,0,1,230.92,86.39Z"/></g></g></svg>