<svg xmlns="http://www.w3.org/2000/svg" viewBox="0 0 456.75 165.57"><g id="Layer_2" data-name="Layer 2"><g id="Layer_1-2" data-name="Layer 1"><path d="M27.3,0H0V136.73H32.07q25.2,0,35.24-14.86t10-54.15q0-38.56-10-53.14T27.3,0Zm18,115q-3.62,6.85-12.92,6.84H27.54V15H32.4q9.39,0,13,11.59t3.55,42.52Q48.92,108.14,45.32,115Z"/><rect x="82.62" y="0.08" width="25.84" height="23.89"/><rect x="82.62" y="31.99" width="25.84" height="104.74"/><path d="M151.72,77.63Q139.4,66.86,137,62.84a15.94,15.94,0,0,1-2.39-8.31,7.1,7.1,0,0,1,2.07-5.48,7.4,7.4,0,0,1,5.22-1.91,6.85,6.85,0,0,1,5.84,2.92,12.79,12.79,0,0,1,2.1,7.61h20.57q0-13-7.36-20t-21.31-7q-13,0-21,6.85t-8,18.36q0,11.12,3.15,18.65t15,17.75q9.33,8,13.42,12.4c2.71,2.91,4.09,5.62,4.09,8.11q0,4-1.95,6.09c-1.31,1.35-3.25,2-5.84,2a7.34,7.34,0,0,1-6.11-2.57c-1.37-1.74-2.07-4.49-2.07-8.26h-20.9q0,13.83,7.49,20.77t22.32,6.93q13.77,0,21.67-7.43c5.26-4.93,7.89-11.85,7.89-20.7a29.51,29.51,0,0,0-4.16-15.53Q162.58,87.12,151.72,77.63Z"/><path d="M452.57,94.05q-4.19-6.93-15-16.42-12.3-10.77-14.69-14.79a15.94,15.94,0,0,1-2.39-8.31,7.09,7.09,0,0,1,2.06-5.48,7.42,7.42,0,0,1,5.23-1.91,6.82,6.82,0,0,1,5.83,2.92,12.72,12.72,0,0,1,2.1,7.61h20.58q0-13-7.37-20t-21.3-7q-13.06,0-21,6.85t-8,18.36q0,11.12,3.17,18.65t15,17.75q9.31,8,13.4,12.4t4.1,8.11q0,4-2,6.09c-1.29,1.35-3.24,2-5.84,2a7.33,7.33,0,0,1-6.1-2.57c-1.39-1.74-2.07-4.49-2.07-8.26h-20.9q0,13.83,7.49,20.77t22.32,6.93q13.76,0,21.66-7.43c5.27-4.93,7.91-11.85,7.91-20.7A29.62,29.62,0,0,0,452.57,94.05Z"/><path d="M225,110.65h-9.68q-.57,6.76-2.23,8.81a6.13,6.13,0,0,1-5.06,2q-5.51,0-7.12-6.53T199.3,84.11q0-21.14,1.42-29.22t7-8.08a4.93,4.93,0,0,1,4.75,2.8q1.41,2.8,1.41,12.35h11.28a57.69,57.69,0,0,1,9.47-14.18,24.5,24.5,0,0,0-5.48-9.39q-7.49-7.77-21.5-7.77-17.6,0-26.33,13.48t-8.74,40q0,26.65,8.43,40.13t24.7,13.5q14.41,0,21.62-6.61a20.27,20.27,0,0,0,5.31-8.26A57.23,57.23,0,0,1,225,110.65Z"/><path d="M334.85,86.47a57.35,57.35,0,0,1-7.26,28q2.34,8.86,6.93,13.56,6.19,6.25,17.13,6.27A35.28,35.28,0,0,0,363,132.64q4.86-1.66,6.48-4.41c.1,1,.18,2,.24,2.79s.08,1.61.08,2.31q0,8.17-3.68,12.43c-2.46,2.83-6.27,4.26-11.46,4.26a60.77,60.77,0,0,1-11.26-1.18A50.15,50.15,0,0,1,333.27,146L330.1,160.3a54.22,54.22,0,0,0,13,4,77.23,77.23,0,0,0,14.09,1.31q16.75,0,26.57-8.43t9.8-23.71V32H367.85V34.5a24.62,24.62,0,0,0-6.93-3,33.09,33.09,0,0,0-8.05-.89A23,23,0,0,0,337,36.45q-6.52,5.84-9.35,16.12c-.35,1.19-.67,2.64-1,4.26a57.32,57.32,0,0,1,8.22,29.64m33,30.82a10.64,10.64,0,0,1-3.32,1.86,14.06,14.06,0,0,1-4.38.57,7,7,0,0,1-5.46-2.11q-1.9-2.11-2.39-6.88-.49-5-.82-12.47c-.2-5-.32-10.26-.32-15.88,0-3.57.09-7.65.28-12.27s.48-8.92.86-12.92,1.25-6.52,2.59-7.9,3.46-2.07,6.32-2.07a16.7,16.7,0,0,1,3.52.45,11.63,11.63,0,0,1,3.12,1.09Z"/><path d="M277.36,66.34a20,20,0,0,0-13.92,34.46l-.07-.06-5.23,5.65a27.67,27.67,0,0,0,6.13,4.48l3.78-6.73h0a20,20,0,0,0,23.83-31.56l5.26-5.66a28.19,28.19,0,0,0-6-4.65L287.39,69A19.93,19.93,0,0,0,277.36,66.34Z"/><path d="M251.48,113.59l-5.33,5.77a45.45,45.45,0,0,0,9.46,6.92l3.85-6.86A37.5,37.5,0,0,1,251.48,113.59Z"/><path d="M303.82,59.73,309.17,54a45.36,45.36,0,0,0-9.58-7.2l-3.78,6.89A37.69,37.69,0,0,1,303.82,59.73Z"/><path d="M297.82,66.19l5.32-5.72a36.46,36.46,0,0,0-7.81-5.92l-3.75,6.85A28.85,28.85,0,0,1,297.82,66.19Z"/><path d="M257.46,107.13l-5.3,5.73a36.75,36.75,0,0,0,7.79,5.69l3.83-6.81A29.36,29.36,0,0,1,257.46,107.13Z"/><path d="M249.6,86.39a27.66,27.66,0,0,0,8.54,20l5.23-5.65.07.06A20,20,0,0,1,287.39,69l3.71-6.77a27.76,27.76,0,0,0-41.5,24.12Z"/><path d="M297.42,86.39a20,20,0,0,1-29.37,17.75h0l-3.78,6.73a27.75,27.75,0,0,0,32.87-43.95l-5.26,5.66A20,20,0,0,1,297.42,86.39Z"/><path d="M240.79,86.39a36.46,36.46,0,0,0,11.37,26.47l5.3-5.73A28.75,28.75,0,0,1,291.58,61.4l3.75-6.85a36.54,36.54,0,0,0-54.54,31.84Z"/><path d="M306.13,86.39a28.75,28.75,0,0,1-42.35,25.35L260,118.55a36.56,36.56,0,0,0,43.19-58.08l-5.32,5.72A28.66,28.66,0,0,1,306.13,86.39Z"/><path d="M315,86.39a37.57,37.57,0,0,1-55.49,33l-3.85,6.86A45.42,45.42,0,0,0,309.17,54l-5.35,5.75A37.46,37.46,0,0,1,315,86.39Z"/><path d="M231.92,86.39a45.29,45.29,0,0,0,14.23,33l5.33-5.77a37.55,37.55,0,0,1,44.33-59.92l3.78-6.89a45.41,45.41,0,0,0-67.67,39.61Z"/><path d="M315.07,47.63l-5.22,5.61a46.42,46.42,0,0,1-54.73,73.91L251.26,134a54.2,54.2,0,0,0,63.81-86.4Z"/><path d="M230.92,86.39A46.41,46.41,0,0,1,300.07,45.9l3.68-6.73a54,54,0,0,0-25.6-6.91h-.88A54.29,54.29,0,0,0,223.05,86h0v.52a54.13,54.13,0,0,0,17.06,39.41l5.36-5.79A46.31,46.31,0,0,1,230.92,86.39Z"/></g></g></svg>