<?xml version="1.0" encoding="utf-8"?>
<!-- Generator: Adobe Illustrator 24.3.0, SVG Export Plug-In . SVG Version: 6.00 Build 0)  -->
<svg version="1.1" id="Layer_1" xmlns="http://www.w3.org/2000/svg" xmlns:xlink="http://www.w3.org/1999/xlink" x="0px" y="0px"
	 viewBox="0 0 841.89 595.28" style="enable-background:new 0 0 841.89 595.28;" xml:space="preserve">
<style type="text/css">
	.st0{fill:#BCDBBB;stroke:#000000;stroke-width:0.2;stroke-miterlimit:10;}
	.st1{fill:none;stroke:#000000;stroke-width:0.4;stroke-miterlimit:10;}
	.st2{fill:none;stroke:#000000;stroke-width:0.4;stroke-linecap:round;stroke-linejoin:round;stroke-miterlimit:10;}
	.st3{fill:none;stroke:#000000;stroke-width:0.1;stroke-miterlimit:10;}
	.st4{fill:none;stroke:#000000;stroke-width:0.2;stroke-miterlimit:10;}
	.st5{fill:none;stroke:#000000;stroke-width:0.25;stroke-miterlimit:10;}
	.st6{fill:none;stroke:#000000;stroke-width:0.15;stroke-miterlimit:10;}
	.st7{fill:none;stroke:#000000;stroke-width:0.3;stroke-miterlimit:10;}
	.st8{fill:none;stroke:#000000;stroke-width:0.35;stroke-miterlimit:10;}
	.st9{fill:none;stroke:#000000;stroke-width:0.45;stroke-miterlimit:10;}
	.st10{fill:none;stroke:#000000;stroke-width:0.8;stroke-miterlimit:10;}
	.st11{fill:none;stroke:#000000;stroke-miterlimit:10;}
	.st12{fill:none;stroke:#000000;stroke-width:1.2;stroke-miterlimit:10;}
	.st13{fill:none;stroke:#000000;stroke-width:1.5;stroke-miterlimit:10;}
</style>
<g>
	<rect x="290.94" y="145.49" class="st0" width="303.78" height="303.78"/>
	<g>
		<g>
			<g>
				<path class="st1" d="M322.58,220.72c0.14,0.15,0.42,0.24,0.62,0.2c2.02-0.4,13.69-2.38,16.41-2.73
					c6.04-0.77,17.25-0.88,19.45-1.08c1.32-0.12-0.2-5.61-3.66-5.48c-4.1,0.15-10.47,1.86-10.47,1.86s3.5-4.29,3.63-4.47
					c0.13-0.18,0.62-1.04-0.36-1.49c-0.98-0.45-2.7-0.57-2.92-1.2s2.6-0.35,3.11-1.05c1.12-1.52-0.79-4.73-2.63-4.15
					c-3.53,1.12-4.08,1.43-4.4,1.56s0.75-2.2-0.02-3.13c-0.77-0.94-4.46-2.21-6.1-2.09c-0.9,0.07,2.69,6.07,2.69,6.07l-9.67,0.68
					c-0.24,0.02-0.42,0.24-0.38,0.48c0.15,0.93,0.74,3.66,3.52,3.52c5.13-0.27,10.57-1.04,10.57-1.04s0.4,0.44,0.62,1.3
					c0.29,1.13-1.52,5.66-1.52,5.66s-5.37,1.08-5.44,0.8c-0.22-0.84,0.92-2.46-0.13-4.19c-0.36-0.59-3.61-1.85-4.91-1.66
					c-0.67,0.1,1.66,5.38,1.92,6.27c0.21,0.71-8.36,1.5-11.8,1.78c-0.77,0.06-0.97,0.57-0.43,1.14L322.58,220.72z"/>
				<path class="st1" d="M349.48,223.29c-1.43-2.62-5.46-3.12-6.43-3.12c-0.93,0-7.26,1.66-8.88,2.09c-0.12,0.03-0.74,0-0.85-0.03
					c-0.58-0.17-1.92-0.6-3.17-0.78c-0.77-0.11-0.98,1.41-0.68,1.9c0.3,0.49,0.59,1.9,0.64,2.79c0.04,0.89,0.2,5.23,0.11,5.99
					c-0.09,0.76-0.72,1.78-0.63,2.63s0.79,3.93,2.3,4.22c1,0.19,1.85-0.85,2.25-1.28c0.1-0.1,0.22-0.17,0.36-0.19
					c1.61-0.27,8.13-0.76,8.31-0.57c1.03,1.02,1.94,3,2.83,3c0.99,0,3.1-1.71,3.15-3.89c0.04-2.03,0.13-8.84,0.14-9.73
					c0-0.07,0.01-0.14,0.04-0.2C349.13,225.61,349.79,223.86,349.48,223.29z M343.01,233.17c0,0-0.43,0-1.11-0.38
					c-0.44-0.24-6.4,1.84-7,1.34c-0.51-0.42-0.33-3.1-0.33-3.1c2.41-0.09,6.49-0.82,7.07-0.99c0.58-0.17-0.65-3.38-2.59-3.07
					c-1.94,0.31-4.57,0.76-4.57,0.76c0-1.25,0-2.74,0-2.74c1.41-0.47,6.29-1.14,6.91-1.23c0.62-0.09,1.37,1.51,1.49,2.34
					C343.06,227.36,343.01,233.17,343.01,233.17z"/>
			</g>
			<g>
				<path class="st1" d="M359.8,287.62c-6.85-1.31-18.01-8.19-16.86-8.56c0.7-0.23,9.8-0.34,12.69-0.5
					c0.38-0.02,0.67-0.36,0.63-0.74c-0.12-1.28-0.67-3.85-3.05-3.71c-2.4,0.14-3.31,0.09-6.59,0.61c-3.27,0.52-3.04,0.83-3.99-0.43
					c-0.38-0.5-4.01-1.52-5.17-1.56c-0.74-0.02-1.26-0.15-0.89-0.54c0.15-0.15,0.35-0.24,0.56-0.25c1.33-0.07,4.8-0.24,4.98-0.06
					c0.22,0.22,0.61,1.07,1.43,0.98c1.16-0.12,2.43-2.05,2.51-3.03c0.07-0.89,0-6.45-0.04-7.28c-0.06-0.99,0.93-2.09,0.57-3.11
					c-0.28-0.79-1.39-1.41-3.17-2.19c-2.38-1.04-3.44,0.08-4.19,0.06c-0.49-0.02-0.57-0.27-0.18-0.56c1.11-0.85,3.69-2.74,3.73-3.21
					c0.06-0.78-4.04-2.61-5.37-2.42c-1.19,0.17-0.5,1.52-0.46,1.92c0.07,0.72-0.37,2.76-0.9,4.6c-0.09,0.32-0.39,0.53-0.72,0.48
					c-0.76-0.1-2.11-0.44-2.58-0.3c-0.78,0.24-0.12,2.19,0.4,3.48c0.96,2.38,0.32,7.63,0.3,9.33c-0.01,1.34,4.26,4.91,3.12,5.36
					c-1.32,0.52-12.29,0.93-14.29,1.55c-0.78,0.24,1.72,3.23,3.81,3.28c2.33,0.06,6.05-0.8,7.58-1c0.64-0.08-2.98,3.59-4.25,4.9
					c-1.06,1.1-8.6,6.01-7.54,5.85c3.81-0.6,5.59-1.68,7.4-2.44c1.93-0.81,6.64-3.8,7.69-4.53c0.46-0.32-0.5,3.66-0.94,4.82
					c-0.39,1.04,0.6,4.7,2.79,5.14c1.66,0.34,2.79-2.64,2.92-3.35c0.05-0.26,0.12-1.33,0.12-1.4c-0.08-0.97-0.75-7.18-0.36-7.24
					c0.72-0.12,5.8,7.58,7.31,8.38C350.07,290.62,362.01,288.04,359.8,287.62z M339.14,262.7c-0.93,0.02-1.39,0.18-1.69,0.12
					c-0.28-0.06-0.31-0.47-0.31-0.98c0-0.87-0.05-1.2-0.02-1.85c0.02-0.32,2.56-0.52,3.1-0.06c0.82,0.69,0.81,2.96,0.76,4.39
					c-0.04,1.43,0.21,4.45-0.02,4.51c-1.5,0.36-2.69,0.65-3.67,0.65c-0.44,0-0.24-2.93-0.18-3.67c0.02-0.2,2.07-0.28,2.49-0.39
					C340.46,265.18,340.27,262.67,339.14,262.7z"/>
				<path class="st2" d="M346.69,262.98c1.4-1.69,2.83-3.1,2.34-4.48c-0.49-1.38-0.04-1.92,0.74-1.87c0.78,0.04,6.11,1.2,6.27,2.76
					S346.69,262.98,346.69,262.98z"/>
				<path class="st2" d="M346.99,265c-0.17,0.24-0.14,0.49,0.04,0.71c1.17,1.46,3.9,5.29,4.83,5.76c1.38,0.71,4.59-2.2,2.97-3.98
					c-1.72-1.87-7.06-2.56-7.36-2.66C347.31,264.79,347.14,264.79,346.99,265z"/>
				<path class="st2" d="M324.6,259.14c-0.2-0.46,0.04-0.7,0.54-0.63c2.19,0.3,5.68,1.56,6.05,2.5c0.5,1.27-0.78,4.05-2.37,3.55
					C326.98,263.98,325.14,260.4,324.6,259.14z"/>
				<path class="st2" d="M331.93,265.01c-1.4,0.49-6.53,2.76-8.14,2.72c-1.61-0.04,0,3.08,0,3.08s1.52,2.81,2.14,2.9
					c0.62,0.09,3.66-3.63,3.99-4.35s2.23-3.19,2.36-3.7C332.42,265.14,331.93,265.01,331.93,265.01z"/>
			</g>
		</g>
		<g>
			
				<ellipse transform="matrix(0.2621 -0.965 0.965 0.2621 39.7743 646.7899)" class="st3" cx="442.83" cy="297.39" rx="17.45" ry="18.09"/>
			
				<ellipse transform="matrix(0.2621 -0.965 0.965 0.2621 39.7743 646.7899)" class="st4" cx="442.83" cy="297.39" rx="34.91" ry="36.18"/>
			
				<ellipse transform="matrix(0.2621 -0.965 0.965 0.2621 39.7743 646.7899)" class="st5" cx="442.83" cy="297.39" rx="39.27" ry="40.7"/>
			
				<ellipse transform="matrix(0.2621 -0.965 0.965 0.2621 39.7743 646.7899)" class="st4" cx="442.83" cy="297.39" rx="30.54" ry="31.66"/>
			
				<ellipse transform="matrix(0.2621 -0.965 0.965 0.2621 39.7743 646.7899)" class="st4" cx="442.83" cy="297.39" rx="26.18" ry="27.14"/>
			
				<ellipse transform="matrix(0.2621 -0.965 0.965 0.2621 39.7743 646.7899)" class="st6" cx="442.83" cy="297.39" rx="21.82" ry="22.61"/>
			
				<ellipse transform="matrix(0.2621 -0.965 0.965 0.2621 39.7743 646.7899)" class="st5" cx="442.83" cy="297.39" rx="43.63" ry="45.23"/>
			
				<ellipse transform="matrix(0.2621 -0.965 0.965 0.2621 39.7743 646.7899)" class="st5" cx="442.83" cy="297.39" rx="47.99" ry="49.75"/>
			
				<ellipse transform="matrix(0.2621 -0.965 0.965 0.2621 39.7743 646.7899)" class="st7" cx="442.83" cy="297.39" rx="52.36" ry="54.27"/>
			<path class="st7" d="M499.57,312.8c-8.21,30.23-40.27,47.84-71.61,39.33c-31.34-8.51-45.72-38.73-37.51-68.96
				s35.91-49.02,67.24-40.51C489.04,251.16,507.78,282.57,499.57,312.8z"/>
			<path class="st8" d="M503.94,313.98c-8.84,32.56-43.37,51.52-77.11,42.35s-45.21-40.62-36.36-73.17
				c8.84-32.56,34.64-53.89,68.38-44.72C492.59,247.6,512.78,281.43,503.94,313.98z"/>
			<path class="st8" d="M508.3,315.17c-9.47,34.88-46.47,55.2-82.62,45.38s-44.69-42.5-35.22-77.38
				c9.47-34.88,33.37-58.75,69.53-48.93S517.78,280.29,508.3,315.17z"/>
			<path class="st1" d="M512.67,316.35c-10.11,37.21-49.56,58.88-88.13,48.4s-44.18-44.39-34.08-81.6s32.1-63.62,70.67-53.14
				S522.77,279.15,512.67,316.35z"/>
			<path class="st1" d="M517.03,317.54c-10.74,39.53-52.66,62.56-93.64,51.43s-43.67-46.27-32.93-85.81s30.84-68.49,71.82-57.36
				C503.25,236.93,527.77,278.01,517.03,317.54z"/>
			<path class="st9" d="M521.4,318.72c-11.37,41.86-55.76,66.24-99.15,54.45s-43.6-46.52-32.23-88.38
				c11.37-41.86,30.02-74.98,73.4-63.2S532.76,276.87,521.4,318.72z"/>
			<path class="st9" d="M525.76,319.91c-12,44.18-58.86,69.92-104.65,57.48s-43.09-48.41-31.09-92.59s28.75-79.85,74.55-67.41
				S537.76,275.73,525.76,319.91z"/>
			<path class="st10" d="M530.12,321.09c-12.63,46.51-61.95,73.6-110.16,60.5c-48.21-13.09-42.13-51.93-29.5-98.44
				s27.04-83.08,75.25-69.99S542.76,274.58,530.12,321.09z"/>
			<path class="st11" d="M534.49,322.28c-13.26,48.83-65.05,77.28-115.67,63.53S377.2,332,390.46,283.16
				c13.26-48.83,25.77-87.95,76.39-74.2C517.47,222.71,547.75,273.44,534.49,322.28z"/>
			<path class="st11" d="M538.85,323.47c-13.9,51.16-68.15,80.96-121.18,66.55s-41.11-55.7-27.21-106.86
				c13.9-51.16,24.5-92.81,77.53-78.41C521.02,219.16,552.75,272.3,538.85,323.47z"/>
			<path class="st12" d="M543.22,324.65c-14.53,53.49-71.25,84.64-126.69,69.58s-40.6-57.58-26.07-111.07s23.24-97.68,78.68-82.62
				C524.58,215.6,557.74,271.16,543.22,324.65z"/>
			<path class="st12" d="M547.58,325.84c-15.16,55.81-74.34,88.32-132.19,72.6s-40.09-59.47-24.93-115.28
				c15.16-55.81,21.97-102.54,79.82-86.83C528.13,212.04,562.74,270.02,547.58,325.84z"/>
			<path class="st13" d="M551.95,327.02c-15.79,58.14-77.44,92-137.7,75.63s-39.57-61.35-23.78-119.49
				c15.79-58.14,20.7-107.41,80.96-91.04S567.74,268.88,551.95,327.02z"/>
			<path class="st13" d="M556.31,328.21c-16.42,60.46-80.54,95.68-143.21,78.66c-62.67-17.02-39.06-63.24-22.64-123.7
				s19.44-112.27,82.11-95.25S572.73,267.74,556.31,328.21z"/>
		</g>
	</g>
</g>
</svg>
