<svg xmlns="http://www.w3.org/2000/svg" viewBox="0 0 189.56 227.98"><defs><style>.cls-1,.cls-10,.cls-11,.cls-2,.cls-3,.cls-4,.cls-5,.cls-6,.cls-7,.cls-8,.cls-9{fill:none;stroke:#000;}.cls-1,.cls-2,.cls-3,.cls-4{stroke-miterlimit:10;}.cls-1{stroke-width:0.1px;}.cls-2{stroke-width:0.2px;}.cls-3{stroke-width:0.25px;}.cls-4{stroke-width:0.3px;}.cls-10,.cls-11,.cls-5,.cls-6,.cls-7,.cls-8,.cls-9{stroke-miterlimit:10;}.cls-5{stroke-width:0.35px;}.cls-6{stroke-width:0.4px;}.cls-7{stroke-width:0.45px;}.cls-8{stroke-width:0.8px;}.cls-10{stroke-width:1.2px;}.cls-11{stroke-width:1.5px;}</style></defs><g id="Layer_2" data-name="Layer 2"><g id="Layer_1-2" data-name="Layer 1"><ellipse class="cls-1" cx="71.45" cy="113.5" rx="17.4" ry="18.1" transform="translate(-56.81 152.7) rotate(-74.8)"/><ellipse class="cls-2" cx="71.45" cy="113.5" rx="34.9" ry="36.2" transform="translate(-56.81 152.7) rotate(-74.8)"/><ellipse class="cls-2" cx="71.45" cy="113.5" rx="26.2" ry="27.1" transform="translate(-56.81 152.7) rotate(-74.8)"/><ellipse class="cls-3" cx="71.45" cy="113.5" rx="43.6" ry="45.2" transform="translate(-56.81 152.7) rotate(-74.8)"/><ellipse class="cls-4" cx="71.45" cy="113.5" rx="52.4" ry="54.3" transform="matrix(0.26, -0.97, 0.97, 0.26, -56.81, 152.7)"/><path class="cls-5" d="M132.55,130.06c-8.8,32.6-43.4,51.5-77.1,42.4s-45.2-40.6-36.4-73.2,34.6-53.9,68.4-44.7S141.45,97.46,132.55,130.06Z"/><path class="cls-6" d="M141.35,132.46c-10.1,37.2-49.6,58.9-88.1,48.4s-44.2-44.4-34.1-81.6,32.1-63.6,70.7-53.1S151.45,95.16,141.35,132.46Z"/><path class="cls-7" d="M150.05,134.76c-11.4,41.9-55.8,66.2-99.1,54.5s-43.6-46.5-32.2-88.4,30-75,73.4-63.2S161.45,93,150.05,134.76Z"/><path class="cls-8" d="M158.75,137.16c-12.6,46.5-62,73.6-110.2,60.5s-42.1-51.9-29.5-98.4,27-83.1,75.2-70S171.45,90.66,158.75,137.16Z"/><path class="cls-9" d="M167.45,139.56c-13.9,51.2-68.1,81-121.2,66.6s-41.1-55.7-27.2-106.9,24.5-92.8,77.5-78.4S181.45,88.36,167.45,139.56Z"/><path class="cls-10" d="M176.25,141.86c-15.2,55.8-74.3,88.3-132.2,72.6S4,155,19.15,99.16s22-102.5,79.8-86.8S191.35,86.06,176.25,141.86Z"/><path class="cls-11" d="M185,144.26c-16.4,60.5-80.5,95.7-143.2,78.7s-39.1-63.2-22.6-123.7S38.55-13,101.25,4.06,201.35,83.76,185,144.26Z"/></g></g></svg>