<svg xmlns="http://www.w3.org/2000/svg" viewBox="0 0 189.55 228.01"><defs><style>.cls-1,.cls-10,.cls-11,.cls-12,.cls-13,.cls-2,.cls-3,.cls-4,.cls-5,.cls-6,.cls-7,.cls-8,.cls-9{fill:none;stroke:#000;}.cls-1,.cls-2,.cls-3,.cls-4,.cls-5{stroke-miterlimit:10;}.cls-1{stroke-width:0.1px;}.cls-2{stroke-width:0.2px;}.cls-3{stroke-width:0.25px;}.cls-4{stroke-width:0.15px;}.cls-5{stroke-width:0.3px;}.cls-10,.cls-11,.cls-12,.cls-13,.cls-6,.cls-7,.cls-8,.cls-9{stroke-miterlimit:10;}.cls-6{stroke-width:0.3px;}.cls-7{stroke-width:0.35px;}.cls-8{stroke-width:0.4px;}.cls-9{stroke-width:0.45px;}.cls-10{stroke-width:0.8px;}.cls-12{stroke-width:1.2px;}.cls-13{stroke-width:1.5px;}</style></defs><g id="Layer_2" data-name="Layer 2"><g id="Layer_1-2" data-name="Layer 1"><ellipse class="cls-1" cx="71.45" cy="113.52" rx="17.45" ry="18.09" transform="matrix(0.26, -0.97, 0.97, 0.26, -56.82, 152.72)"/><ellipse class="cls-2" cx="71.45" cy="113.52" rx="34.91" ry="36.18" transform="translate(-56.82 152.72) rotate(-74.8)"/><ellipse class="cls-3" cx="71.45" cy="113.52" rx="39.27" ry="40.7" transform="translate(-56.82 152.72) rotate(-74.8)"/><ellipse class="cls-2" cx="71.45" cy="113.52" rx="30.54" ry="31.66" transform="translate(-56.82 152.72) rotate(-74.8)"/><ellipse class="cls-2" cx="71.45" cy="113.52" rx="26.18" ry="27.14" transform="translate(-56.82 152.72) rotate(-74.8)"/><ellipse class="cls-4" cx="71.45" cy="113.52" rx="21.82" ry="22.61" transform="translate(-56.82 152.72) rotate(-74.8)"/><ellipse class="cls-3" cx="71.45" cy="113.52" rx="43.63" ry="45.23" transform="translate(-56.82 152.72) rotate(-74.8)"/><ellipse class="cls-3" cx="71.45" cy="113.52" rx="47.99" ry="49.75" transform="translate(-56.82 152.72) rotate(-74.8)"/><ellipse class="cls-5" cx="71.45" cy="113.52" rx="52.36" ry="54.27" transform="translate(-56.82 152.72) rotate(-74.8)"/><path class="cls-6" d="M128.2,128.91c-8.21,30.23-40.27,47.84-71.61,39.33s-45.72-38.73-37.51-69S55,50.26,86.32,58.77,136.41,98.68,128.2,128.91Z"/><path class="cls-7" d="M132.57,130.09c-8.84,32.56-43.37,51.52-77.11,42.35S10.25,131.82,19.1,99.27,53.74,45.38,87.48,54.55,141.41,97.54,132.57,130.09Z"/><path class="cls-7" d="M136.93,131.28c-9.47,34.88-46.47,55.2-82.62,45.38S9.62,134.16,19.09,99.28,52.46,40.53,88.62,50.35,146.41,96.4,136.93,131.28Z"/><path class="cls-8" d="M141.3,132.46c-10.11,37.21-49.56,58.88-88.13,48.4S9,136.47,19.09,99.26s32.1-63.62,70.67-53.14S151.4,95.26,141.3,132.46Z"/><path class="cls-8" d="M145.66,133.65C134.92,173.18,93,196.21,52,185.08S8.35,138.81,19.09,99.27,49.93,30.78,90.91,41.91,156.4,94.12,145.66,133.65Z"/><path class="cls-9" d="M150,134.83c-11.37,41.86-55.76,66.24-99.15,54.45S7.28,142.76,18.65,100.9s30-75,73.4-63.2S161.39,93,150,134.83Z"/><path class="cls-9" d="M154.39,136c-12,44.18-58.86,69.92-104.65,57.48S6.65,145.09,18.65,100.91,47.4,21.06,93.2,33.5,166.39,91.84,154.39,136Z"/><path class="cls-10" d="M158.75,137.2c-12.63,46.51-61.95,73.6-110.16,60.5S6.46,145.77,19.09,99.26s27-83.08,75.25-70S171.39,90.69,158.75,137.2Z"/><path class="cls-11" d="M163.12,138.39c-13.26,48.83-65.05,77.28-115.67,63.53S5.83,148.11,19.09,99.27s25.77-87.95,76.39-74.2S176.38,89.55,163.12,138.39Z"/><path class="cls-11" d="M167.48,139.58c-13.9,51.16-68.15,81-121.18,66.55S5.19,150.43,19.09,99.27,43.59,6.46,96.62,20.86,181.38,88.41,167.48,139.58Z"/><path class="cls-12" d="M171.85,140.76c-14.53,53.49-71.25,84.64-126.69,69.58S4.56,152.76,19.09,99.27,42.33,1.59,97.77,16.65,186.37,87.27,171.85,140.76Z"/><path class="cls-12" d="M176.21,142c-15.16,55.81-74.34,88.32-132.19,72.6S3.93,155.08,19.09,99.27s22-102.54,79.82-86.83S191.37,86.13,176.21,142Z"/><path class="cls-13" d="M180.58,143.13c-15.79,58.14-77.44,92-137.7,75.63S3.31,157.41,19.1,99.27s20.7-107.41,81-91S196.37,85,180.58,143.13Z"/><path class="cls-13" d="M184.94,144.32C168.52,204.78,104.4,240,41.73,223S2.67,159.74,19.09,99.28,38.53-13,101.2,4,201.36,83.85,184.94,144.32Z"/></g></g></svg>