<svg xmlns="http://www.w3.org/2000/svg" viewBox="0 0 189.54 227.97"><defs><style>.cls-1,.cls-10,.cls-11,.cls-2,.cls-3,.cls-4,.cls-5,.cls-6,.cls-7,.cls-8,.cls-9{fill:none;stroke:#fff;}.cls-1,.cls-2,.cls-3{stroke-miterlimit:10;}.cls-1{stroke-width:0.1px;}.cls-2{stroke-width:0.2px;}.cls-3{stroke-width:0.25px;}.cls-4{stroke-miterlimit:10.04;stroke-width:0.3px;}.cls-10,.cls-11,.cls-5,.cls-6,.cls-7,.cls-8,.cls-9{stroke-miterlimit:10;}.cls-5{stroke-width:0.35px;}.cls-6{stroke-width:0.4px;}.cls-7{stroke-width:0.45px;}.cls-8{stroke-width:0.8px;}.cls-10{stroke-width:1.2px;}.cls-11{stroke-width:1.5px;}</style></defs><g id="Layer_2" data-name="Layer 2"><g id="Layer_1-2" data-name="Layer 1"><ellipse class="cls-1" cx="71.4" cy="113.49" rx="17.4" ry="18.1" transform="matrix(0.26, -0.97, 0.97, 0.26, -56.84, 152.64)"/><ellipse class="cls-2" cx="71.4" cy="113.49" rx="34.9" ry="36.2" transform="translate(-56.84 152.64) rotate(-74.8)"/><ellipse class="cls-2" cx="71.4" cy="113.49" rx="26.2" ry="27.1" transform="translate(-56.84 152.64) rotate(-74.8)"/><ellipse class="cls-3" cx="71.4" cy="113.49" rx="43.6" ry="45.2" transform="translate(-56.84 152.64) rotate(-74.8)"/><ellipse class="cls-4" cx="71.81" cy="112.89" rx="52.62" ry="54.53" transform="translate(-55.82 153.03) rotate(-75)"/><path class="cls-5" d="M132.5,130.05c-8.8,32.6-43.4,51.5-77.1,42.4S10.2,131.85,19,99.25s34.6-53.9,68.4-44.7S141.4,97.45,132.5,130.05Z"/><path class="cls-6" d="M141.3,132.45c-10.1,37.2-49.6,58.9-88.1,48.4S9,136.45,19.1,99.25s32.1-63.6,70.7-53.1S151.4,95.15,141.3,132.45Z"/><path class="cls-7" d="M150,134.75c-11.4,41.9-55.8,66.2-99.1,54.5s-43.6-46.5-32.2-88.4,30-75,73.4-63.2S161.4,93,150,134.75Z"/><path class="cls-8" d="M158.7,137.15c-12.6,46.5-62,73.6-110.2,60.5S6.4,145.75,19,99.25s27-83.1,75.2-70S171.4,90.65,158.7,137.15Z"/><path class="cls-9" d="M167.4,139.55c-13.9,51.2-68.1,81-121.2,66.6S5.1,150.45,19,99.25s24.5-92.8,77.5-78.4S181.4,88.35,167.4,139.55Z"/><path class="cls-10" d="M176.2,141.85c-15.2,55.8-74.3,88.3-132.2,72.6S4,155,19.1,99.15s22-102.5,79.8-86.8S191.3,86.05,176.2,141.85Z"/><path class="cls-11" d="M185,144.25c-16.4,60.5-80.5,95.7-143.2,78.7s-39.1-63.2-22.6-123.7S38.5-13,101.2,4.05,201.3,83.75,185,144.25Z"/></g></g></svg>