<svg xmlns="http://www.w3.org/2000/svg" viewBox="0 0 303.98 303.98"><defs><style>.cls-1{fill:#bcdbbb;}.cls-1,.cls-10,.cls-11,.cls-12,.cls-13,.cls-14,.cls-15,.cls-4,.cls-5,.cls-6,.cls-7,.cls-8,.cls-9{stroke:#1d1d1b;}.cls-1,.cls-10,.cls-11,.cls-12,.cls-13,.cls-14,.cls-15,.cls-2,.cls-4,.cls-5,.cls-6,.cls-7,.cls-8,.cls-9{stroke-miterlimit:10;}.cls-1,.cls-5{stroke-width:0.2px;}.cls-10,.cls-11,.cls-12,.cls-13,.cls-14,.cls-15,.cls-2,.cls-3,.cls-4,.cls-5,.cls-6,.cls-7,.cls-8,.cls-9{fill:none;}.cls-2,.cls-3{stroke:#000;}.cls-10,.cls-2,.cls-3{stroke-width:0.4px;}.cls-3{stroke-linecap:round;stroke-linejoin:round;}.cls-4{stroke-width:0.1px;}.cls-6{stroke-width:0.25px;}.cls-7{stroke-width:0.15px;}.cls-8{stroke-width:0.3px;}.cls-9{stroke-width:0.35px;}.cls-11{stroke-width:0.45px;}.cls-12{stroke-width:0.8px;}.cls-14{stroke-width:1.2px;}.cls-15{stroke-width:1.5px;}</style></defs><g id="Layer_2" data-name="Layer 2"><g id="Layer_1-2" data-name="Layer 1"><rect class="cls-1" x="0.1" y="0.1" width="303.78" height="303.78"/><path class="cls-2" d="M31.73,75.33a.75.75,0,0,0,.62.2c2-.4,13.69-2.38,16.41-2.73,6-.77,17.26-.88,19.45-1.08,1.32-.11-.2-5.61-3.66-5.48A60.88,60.88,0,0,0,54.08,68.1s3.5-4.29,3.63-4.47a.93.93,0,0,0-.36-1.49c-1-.44-2.7-.57-2.92-1.19s2.6-.35,3.11-1.05c1.12-1.52-.78-4.73-2.63-4.15a37,37,0,0,0-4.4,1.56c-.33.14.75-2.19,0-3.13S46,52,44.38,52.09c-.9.07,2.69,6.07,2.69,6.07l-9.66.68a.41.41,0,0,0-.38.48c.14.93.73,3.67,3.52,3.52,5.13-.26,10.57-1,10.57-1a3.25,3.25,0,0,1,.62,1.3c.3,1.13-1.51,5.67-1.51,5.67s-5.37,1.07-5.44.8c-.22-.84.92-2.46-.14-4.19-.35-.59-3.6-1.85-4.9-1.66-.67.1,1.65,5.38,1.92,6.27.22.71-8.35,1.5-11.8,1.78-.77.07-1,.58-.43,1.14Z"/><path class="cls-2" d="M58.63,77.89c-1.42-2.62-5.45-3.12-6.42-3.12S45,76.43,43.33,76.86a3.55,3.55,0,0,1-.86,0A24.92,24.92,0,0,0,39.31,76c-.77-.11-1,1.41-.68,1.91a8,8,0,0,1,.63,2.79c.05.89.2,5.23.11,6s-.71,1.77-.63,2.62.8,3.93,2.31,4.22c1,.18,1.84-.85,2.25-1.28a.63.63,0,0,1,.36-.19A63.33,63.33,0,0,1,52,91.52c1,1,1.94,3,2.83,3s3.1-1.71,3.15-3.9c0-2,.13-8.84.14-9.73a.45.45,0,0,1,0-.2C58.29,80.22,58.94,78.46,58.63,77.89Zm-6.46,9.88a2.6,2.6,0,0,1-1.12-.38c-.44-.24-6.4,1.84-7,1.34s-.33-3.1-.33-3.1a49.26,49.26,0,0,0,7.07-1c.58-.17-.65-3.38-2.59-3.07l-4.57.76V79.59a69.15,69.15,0,0,1,6.91-1.23c.62-.09,1.37,1.51,1.49,2.34C52.22,82,52.17,87.77,52.17,87.77Z"/><path class="cls-2" d="M69,142.22c-6.85-1.31-18-8.18-16.86-8.56.7-.22,9.8-.33,12.69-.5a.67.67,0,0,0,.63-.74c-.12-1.27-.67-3.85-3.05-3.71a48.74,48.74,0,0,0-6.59.62c-3.27.52-3,.82-4-.44-.38-.5-4-1.52-5.17-1.56-.74,0-1.27-.16-.9-.54a.85.85,0,0,1,.56-.25,33.87,33.87,0,0,1,5-.06c.23.23.61,1.07,1.43,1,1.16-.12,2.43-2,2.51-3s0-6.45,0-7.28c0-1,.93-2.09.57-3.11-.28-.79-1.39-1.41-3.16-2.19-2.38-1-3.44.09-4.2.06-.48,0-.56-.27-.18-.56,1.11-.85,3.7-2.74,3.73-3.21.06-.77-4-2.6-5.37-2.42s-.5,1.52-.46,1.93a19,19,0,0,1-.9,4.6.67.67,0,0,1-.72.48,10.92,10.92,0,0,0-2.58-.3c-.78.23-.12,2.19.4,3.48,1,2.37.32,7.62.3,9.33,0,1.34,4.26,4.91,3.13,5.36-1.32.52-12.29.93-14.29,1.55-.78.24,1.72,3.22,3.81,3.27,2.33.06,6.05-.8,7.57-1,.65-.08-3,3.59-4.25,4.9-1,1.1-8.6,6-7.53,5.85a25.45,25.45,0,0,0,7.4-2.44,68.5,68.5,0,0,0,7.69-4.53c.46-.32-.5,3.66-.93,4.82s.6,4.7,2.78,5.14c1.67.33,2.79-2.64,2.92-3.35.05-.27.12-1.33.12-1.41-.09-1-.76-7.18-.36-7.24.72-.12,5.8,7.58,7.31,8.38C59.23,145.22,71.17,142.65,69,142.22ZM48.29,117.3c-.92,0-1.38.19-1.68.13s-.31-.48-.31-1c0-.87,0-1.19,0-1.85,0-.32,2.56-.51,3.1-.06.82.69.81,3,.76,4.39s.21,4.45,0,4.5a17.44,17.44,0,0,1-3.68.65c-.44,0-.23-2.93-.17-3.66,0-.2,2.07-.28,2.48-.39C49.61,119.79,49.43,117.28,48.29,117.3Z"/><path class="cls-3" d="M55.85,117.59c1.4-1.7,2.83-3.1,2.34-4.49s0-1.91.73-1.87,6.11,1.2,6.27,2.77S55.85,117.59,55.85,117.59Z"/><path class="cls-3" d="M56.14,119.61a.55.55,0,0,0,0,.71c1.16,1.46,3.89,5.29,4.83,5.77,1.38.7,4.59-2.2,3-4s-7.07-2.56-7.37-2.66A.38.38,0,0,0,56.14,119.61Z"/><path class="cls-3" d="M33.76,113.75c-.2-.46,0-.7.54-.63,2.2.3,5.68,1.56,6.05,2.5.5,1.27-.78,4-2.37,3.55C36.14,118.59,34.3,115,33.76,113.75Z"/><path class="cls-3" d="M41.09,119.61c-1.41.5-6.54,2.77-8.14,2.73s0,3.07,0,3.07,1.51,2.81,2.14,2.9,3.65-3.63,4-4.35,2.23-3.19,2.36-3.7A.51.51,0,0,0,41.09,119.61Z"/><ellipse class="cls-4" cx="151.99" cy="151.99" rx="17.45" ry="18.09" transform="translate(-34.52 258.83) rotate(-74.8)"/><ellipse class="cls-5" cx="151.99" cy="151.99" rx="34.91" ry="36.18" transform="translate(-34.52 258.83) rotate(-74.8)"/><ellipse class="cls-6" cx="151.99" cy="151.99" rx="39.27" ry="40.7" transform="matrix(0.26, -0.97, 0.97, 0.26, -34.52, 258.83)"/><ellipse class="cls-5" cx="151.99" cy="151.99" rx="30.54" ry="31.66" transform="translate(-34.52 258.83) rotate(-74.8)"/><ellipse class="cls-5" cx="151.99" cy="151.99" rx="26.18" ry="27.14" transform="translate(-34.52 258.83) rotate(-74.8)"/><ellipse class="cls-7" cx="151.99" cy="151.99" rx="21.82" ry="22.61" transform="translate(-34.52 258.83) rotate(-74.8)"/><ellipse class="cls-6" cx="151.99" cy="151.99" rx="43.63" ry="45.23" transform="translate(-34.52 258.83) rotate(-74.8)"/><ellipse class="cls-6" cx="151.99" cy="151.99" rx="47.99" ry="49.75" transform="translate(-34.52 258.83) rotate(-74.8)"/><ellipse class="cls-8" cx="151.99" cy="151.99" rx="52.36" ry="54.27" transform="translate(-34.52 258.83) rotate(-74.8)"/><path class="cls-8" d="M208.73,167.4c-8.21,30.23-40.27,47.84-71.61,39.33s-45.71-38.73-37.5-69,35.9-49,67.24-40.52S216.94,137.17,208.73,167.4Z"/><path class="cls-9" d="M213.09,168.59c-8.84,32.55-43.36,51.52-77.11,42.35s-45.21-40.62-36.36-73.17S134.26,83.88,168,93,221.94,136,213.09,168.59Z"/><path class="cls-9" d="M217.46,169.77C208,204.65,171,225,134.84,215.15s-44.7-42.5-35.22-77.38S133,79,169.15,88.83,226.93,134.89,217.46,169.77Z"/><path class="cls-10" d="M221.82,171c-10.1,37.21-49.56,58.88-88.13,48.4S89.51,175,99.62,137.77s32.1-63.62,70.67-53.15S231.93,133.75,221.82,171Z"/><path class="cls-10" d="M226.19,172.14c-10.74,39.54-52.66,62.56-93.64,51.43s-43.67-46.27-32.93-85.8,30.84-68.49,71.81-57.36S236.92,132.61,226.19,172.14Z"/><path class="cls-11" d="M230.55,173.33c-11.37,41.86-55.76,66.24-99.14,54.45S87.8,181.26,99.17,139.4s30-75,73.41-63.2S241.92,131.47,230.55,173.33Z"/><path class="cls-11" d="M234.92,174.51c-12,44.19-58.86,69.92-104.66,57.48S87.17,183.58,99.17,139.4,127.92,59.55,173.72,72,246.92,130.33,234.92,174.51Z"/><path class="cls-12" d="M239.28,175.7c-12.63,46.51-61.95,73.6-110.16,60.5S87,184.28,99.62,137.77s27-83.09,75.24-70S251.91,129.19,239.28,175.7Z"/><path class="cls-13" d="M243.65,176.89c-13.27,48.83-65.06,77.27-115.68,63.52S86.35,186.6,99.62,137.77s25.77-88,76.39-74.2S256.91,128.05,243.65,176.89Z"/><path class="cls-13" d="M248,178.07c-13.9,51.16-68.15,81-121.18,66.56s-41.11-55.7-27.21-106.86S124.12,45,177.15,59.36,261.91,126.91,248,178.07Z"/><path class="cls-14" d="M252.37,179.26c-14.52,53.48-71.24,84.63-126.68,69.58s-40.6-57.59-26.07-111.07,23.23-97.68,78.67-82.62S266.9,125.77,252.37,179.26Z"/><path class="cls-14" d="M256.74,180.44c-15.16,55.81-74.35,88.32-132.2,72.61S84.46,193.58,99.62,137.77s22-102.55,79.82-86.83S271.9,124.63,256.74,180.44Z"/><path class="cls-15" d="M261.1,181.63c-15.79,58.13-77.44,92-137.7,75.63S83.83,195.9,99.62,137.77s20.7-107.41,81-91S276.89,123.49,261.1,181.63Z"/><path class="cls-15" d="M265.47,182.81c-16.42,60.46-80.54,95.68-143.21,78.66S83.2,198.23,99.62,137.77s19.43-112.28,82.11-95.26S281.89,122.35,265.47,182.81Z"/></g></g></svg>