<svg  xmlns="http://www.w3.org/2000/svg" viewBox="0 0 173.03 163.79"><defs><style>.cls-1,.cls-10,.cls-11,.cls-12,.cls-13,.cls-14,.cls-15,.cls-2,.cls-3,.cls-4,.cls-5,.cls-6,.cls-7,.cls-8,.cls-9{fill:none;}.cls-1,.cls-2{stroke:#231f20;}.cls-1,.cls-10,.cls-11,.cls-12,.cls-13,.cls-14,.cls-15,.cls-3,.cls-4,.cls-5,.cls-6,.cls-7,.cls-8,.cls-9{stroke-miterlimit:10;}.cls-1,.cls-2,.cls-9{stroke-width:0.4px;}.cls-2{stroke-linecap:round;stroke-linejoin:round;}.cls-10,.cls-11,.cls-12,.cls-13,.cls-14,.cls-15,.cls-3,.cls-4,.cls-5,.cls-6,.cls-7,.cls-8,.cls-9{stroke:#000;}.cls-3{stroke-width:0.1px;}.cls-4{stroke-width:0.2px;}.cls-5{stroke-width:0.25px;}.cls-6{stroke-width:0.15px;}.cls-7{stroke-width:0.3px;}.cls-8{stroke-width:0.35px;}.cls-10{stroke-width:0.45px;}.cls-11{stroke-width:0.6px;}.cls-12{stroke-width:0.8px;}.cls-14{stroke-width:1.2px;}.cls-15{stroke-width:1.5px;}</style></defs><g id="Layer_2" data-name="Layer 2"><g id="Layer_10" data-name="Layer 10"><path class="cls-1" d="M2.06,26.61a.52.52,0,0,0,.44.14c1.45-.29,9.81-1.7,11.76-1.95,4.32-.55,12.36-.63,13.93-.77.95-.09-.14-4-2.62-3.93a43.91,43.91,0,0,0-7.5,1.33l2.6-3.2a.66.66,0,0,0-.26-1.07c-.7-.32-1.93-.41-2.09-.85s1.86-.25,2.23-.75c.8-1.09-.56-3.39-1.89-3a27.82,27.82,0,0,0-3.15,1.11c-.23.1.54-1.57,0-2.24A7.86,7.86,0,0,0,11.12,10c-.65,0,1.93,4.35,1.93,4.35l-6.93.49a.29.29,0,0,0-.27.34c.11.67.53,2.63,2.53,2.53,3.67-.2,7.57-.75,7.57-.75a2.37,2.37,0,0,1,.45.94c.21.8-1.09,4.05-1.09,4.05a25.29,25.29,0,0,1-3.9.58c-.15-.6.66-1.76-.09-3A6.27,6.27,0,0,0,7.8,18.3c-.48.07,1.19,3.85,1.38,4.49s-6,1.08-8.45,1.28c-.56.05-.7.41-.31.81Z"/><path class="cls-1" d="M21.33,28.45c-1-1.88-3.91-2.24-4.6-2.24s-5.2,1.19-6.36,1.5a2.58,2.58,0,0,1-.62,0,16.72,16.72,0,0,0-2.26-.56c-.56-.08-.71,1-.49,1.36a5.74,5.74,0,0,1,.45,2c0,.63.15,3.74.08,4.29S7,36.05,7.08,36.66s.57,2.81,1.65,3c.72.13,1.32-.61,1.62-.92a.51.51,0,0,1,.26-.14,46.83,46.83,0,0,1,5.95-.41c.74.74,1.39,2.15,2,2.15a3.07,3.07,0,0,0,2.26-2.79c0-1.46.09-6.33.1-7a.37.37,0,0,1,0-.15C21.08,30.11,21.55,28.86,21.33,28.45ZM16.7,35.53a2,2,0,0,1-.8-.28c-.31-.17-4.58,1.32-5,1S10.65,34,10.65,34a33.64,33.64,0,0,0,5.06-.71c.41-.12-.46-2.42-1.85-2.2l-3.28.55v-2c1-.33,4.51-.81,4.95-.88s1,1.09,1.07,1.68C16.74,31.36,16.7,35.53,16.7,35.53Z"/><path class="cls-1" d="M28.73,74.54c-4.91-.94-12.9-5.87-12.08-6.14.5-.16,7-.24,9.09-.36a.47.47,0,0,0,.45-.53c-.08-.91-.48-2.76-2.18-2.65a33.68,33.68,0,0,0-4.72.44c-2.35.37-2.18.59-2.86-.32a10.3,10.3,0,0,0-3.71-1.11c-.53,0-.9-.12-.64-.39a.6.6,0,0,1,.4-.18,24,24,0,0,1,3.56,0c.16.16.44.76,1,.7.83-.09,1.74-1.47,1.79-2.17s0-4.62,0-5.22.67-1.5.41-2.23c-.2-.56-1-1-2.27-1.56-1.7-.74-2.46.06-3,0-.35,0-.41-.19-.13-.4.79-.61,2.64-2,2.67-2.3,0-.56-2.9-1.87-3.85-1.73s-.36,1.08-.33,1.37a13.15,13.15,0,0,1-.65,3.3.47.47,0,0,1-.51.35,7.48,7.48,0,0,0-1.85-.22c-.56.17-.08,1.57.29,2.49.69,1.71.23,5.47.22,6.69,0,1,3,3.52,2.23,3.84s-8.8.66-10.23,1.11c-.56.17,1.23,2.31,2.72,2.34A39.23,39.23,0,0,0,10,69c.46-.07-2.13,2.57-3,3.51-.76.78-6.16,4.31-5.4,4.19a18.19,18.19,0,0,0,5.3-1.75,49.08,49.08,0,0,0,5.51-3.25c.33-.23-.35,2.63-.67,3.45s.43,3.37,2,3.69c1.19.24,2-1.9,2.09-2.4,0-.19.09-1,.08-1-.06-.7-.54-5.14-.25-5.19.52-.08,4.15,5.43,5.24,6C21.76,76.69,30.31,74.84,28.73,74.54ZM13.92,56.68c-.66,0-1,.13-1.21.09s-.22-.34-.22-.7c0-.63,0-.86,0-1.33,0-.23,1.84-.37,2.22,0,.59.49.58,2.12.55,3.14a24.82,24.82,0,0,1,0,3.23,12.33,12.33,0,0,1-2.63.46c-.32,0-.17-2.1-.13-2.62,0-.15,1.49-.21,1.78-.28C14.87,58.46,14.74,56.66,13.92,56.68Z"/><path class="cls-2" d="M19.34,56.88c1-1.21,2-2.22,1.67-3.21s0-1.37.53-1.34,4.38.86,4.49,2S19.34,56.88,19.34,56.88Z"/><path class="cls-2" d="M19.55,58.33a.41.41,0,0,0,0,.52c.84,1,2.79,3.78,3.46,4.13,1,.5,3.29-1.58,2.13-2.85s-5.06-1.84-5.28-1.91A.27.27,0,0,0,19.55,58.33Z"/><path class="cls-2" d="M3.51,54.14c-.14-.34,0-.5.39-.45C5.47,53.9,8,54.8,8.23,55.48c.36.91-.55,2.9-1.7,2.54C5.21,57.6,3.9,55,3.51,54.14Z"/><path class="cls-2" d="M8.76,58.34c-1,.35-4.68,2-5.83,1.95s0,2.2,0,2.2,1.09,2,1.53,2.08S7.08,62,7.32,61.45,8.92,59.17,9,58.8A.37.37,0,0,0,8.76,58.34Z"/><ellipse class="cls-3" cx="88.22" cy="81.53" rx="12.5" ry="12.96" transform="translate(-13.59 145.3) rotate(-74.8)"/><ellipse class="cls-4" cx="88.22" cy="81.53" rx="25.01" ry="25.92" transform="translate(-13.59 145.3) rotate(-74.8)"/><ellipse class="cls-5" cx="88.22" cy="81.53" rx="28.13" ry="29.16" transform="translate(-13.59 145.3) rotate(-74.8)"/><ellipse class="cls-4" cx="88.22" cy="81.53" rx="21.88" ry="22.68" transform="translate(-13.59 145.3) rotate(-74.8)"/><ellipse class="cls-4" cx="88.22" cy="81.53" rx="18.76" ry="19.44" transform="translate(-13.59 145.3) rotate(-74.8)"/><ellipse class="cls-6" cx="88.22" cy="81.53" rx="15.63" ry="16.2" transform="translate(-13.59 145.3) rotate(-74.8)"/><ellipse class="cls-5" cx="88.22" cy="81.53" rx="31.26" ry="32.4" transform="translate(-13.59 145.3) rotate(-74.8)"/><ellipse class="cls-5" cx="88.22" cy="81.53" rx="34.39" ry="35.64" transform="translate(-13.59 145.3) rotate(-74.8)"/><ellipse class="cls-7" cx="88.22" cy="81.53" rx="37.51" ry="38.88" transform="translate(-13.59 145.3) rotate(-74.8)"/><path class="cls-7" d="M128.87,92.57C123,114.23,100,126.85,77.57,120.75S44.81,93,50.69,71.34s25.73-35.12,48.18-29S134.75,70.92,128.87,92.57Z"/><path class="cls-8" d="M132,93.42c-6.33,23.33-31.07,36.91-55.24,30.35S44.36,94.67,50.69,71.34s24.82-38.61,49-32S138.33,70.1,132,93.42Z"/><path class="cls-8" d="M135.12,94.27c-6.79,25-33.29,39.55-59.19,32.51s-32-30.45-25.24-55.44S74.6,29.25,100.51,36.28,141.91,69.28,135.12,94.27Z"/><path class="cls-9" d="M138.25,95.12c-7.24,26.66-35.51,42.19-63.14,34.68S43.45,98,50.69,71.34s23-45.58,50.64-38.07S145.49,68.47,138.25,95.12Z"/><path class="cls-9" d="M141.37,96c-7.69,28.32-37.72,44.82-67.08,36.85S43,99.67,50.69,71.34s22.1-49.06,51.46-41.09S149.07,67.65,141.37,96Z"/><path class="cls-10" d="M144.5,96.82c-8.14,30-39.95,47.46-71,39S42.23,102.5,50.38,72.51,71.88,18.79,103,27.23,152.65,66.83,144.5,96.82Z"/><path class="cls-10" d="M147.63,97.67c-8.6,31.66-42.17,50.09-75,41.18S41.78,104.17,50.38,72.51,71,15.31,103.78,24.22,156.23,66,147.63,97.67Z"/><path class="cls-11" d="M150.75,98.52c-9.05,33.32-44.38,52.73-78.92,43.35S41.64,104.66,50.69,71.34,70.07,11.82,104.6,21.2,159.8,65.2,150.75,98.52Z"/><path class="cls-12" d="M153.88,99.37c-9.5,35-46.6,55.36-82.87,45.51S41.19,106.33,50.69,71.34s18.47-63,54.73-53.16S163.38,64.38,153.88,99.37Z"/><path class="cls-12" d="M157,100.22c-10,36.65-48.83,58-86.82,47.68S40.74,108,50.69,71.34,68.25,4.85,106.24,15.17,167,63.56,157,100.22Z"/><path class="cls-13" d="M160.14,101.07c-10.41,38.32-51,60.63-90.77,49.85S40.29,109.66,50.69,71.34s16.65-70,56.37-59.19S170.54,62.75,160.14,101.07Z"/><path class="cls-14" d="M163.26,101.92c-10.86,40-53.26,63.27-94.71,52s-28.72-42.6-17.86-82.59S66.43-2.12,107.88,9.13,174.12,61.93,163.26,101.92Z"/><path class="cls-14" d="M166.39,102.77c-11.31,41.65-55.48,65.91-98.66,54.18s-28.35-44-17-85.61,14.84-76.95,58-65.22S177.7,61.11,166.39,102.77Z"/><path class="cls-15" d="M169.52,103.62C157.75,146.93,111.81,172.16,66.91,160s-28-45.31-16.22-88.63S64.62-9.09,109.52,3.1,181.28,60.3,169.52,103.62Z"/></g></g></svg>