<svg xmlns="http://www.w3.org/2000/svg" viewBox="0 0 241.16 227.98"><defs><style>.cls-1,.cls-10,.cls-11,.cls-12,.cls-13,.cls-14,.cls-15,.cls-2,.cls-3,.cls-4,.cls-5,.cls-6,.cls-7,.cls-8,.cls-9{fill:none;stroke:#fff;}.cls-1,.cls-10,.cls-11,.cls-12,.cls-13,.cls-14,.cls-15,.cls-9{stroke-miterlimit:10;}.cls-1,.cls-2{stroke-width:0.4px;}.cls-2{stroke-linecap:round;stroke-linejoin:round;}.cls-3,.cls-4,.cls-5,.cls-6,.cls-8{stroke-miterlimit:10;}.cls-3{stroke-width:0.1px;}.cls-4{stroke-width:0.2px;}.cls-5{stroke-width:0.25px;}.cls-6{stroke-width:0.15px;}.cls-7{stroke-miterlimit:10.04;stroke-width:0.25px;}.cls-8{stroke-width:0.3px;}.cls-9{stroke-width:0.3px;}.cls-10{stroke-width:0.35px;}.cls-11{stroke-width:0.45px;}.cls-12{stroke-width:0.8px;}.cls-14{stroke-width:1.2px;}.cls-15{stroke-width:1.5px;}</style></defs><g id="Layer_2" data-name="Layer 2"><g id="Layer_1-2" data-name="Layer 1"><path class="cls-1" d="M2.85,36.76a1.13,1.13,0,0,0,.6.2c2-.4,13.7-2.4,16.4-2.7,6-.8,17.2-.9,19.5-1.1,1.3-.1-.2-5.6-3.7-5.5a55.09,55.09,0,0,0-10.5,1.9s3.5-4.3,3.6-4.5a1,1,0,0,0-.22-1.4l-.18-.1c-1-.4-2.7-.6-2.9-1.2s2.6-.4,3.1-1.1c1.1-1.5-.8-4.7-2.6-4.1-3.5,1.1-4.1,1.4-4.4,1.6s.8-2.2,0-3.1-4.5-2.2-6.1-2.1c-.9.1,2.7,6.1,2.7,6.1l-9.7.7a.46.46,0,0,0-.4.5c.1.9.7,3.7,3.5,3.5,5.1-.3,10.6-1,10.6-1a2.73,2.73,0,0,1,.6,1.3c.3,1.1-1.5,5.7-1.5,5.7s-5.4,1.1-5.4.8c-.2-.8.9-2.5-.1-4.2a8.66,8.66,0,0,0-4.9-1.7c-.7.1,1.7,5.4,1.9,6.3.2.7-8.4,1.5-11.8,1.8-.8.1-1,.6-.4,1.1Z"/><path class="cls-1" d="M29.75,39.36c-1.4-2.6-5.5-3.1-6.4-3.1s-7.3,1.7-8.9,2.1h-.9a21.09,21.09,0,0,0-3.2-.8c-.8-.1-1,1.4-.7,1.9a7.25,7.25,0,0,1,.6,2.8c0,.9.2,5.2.1,6s-.7,1.8-.6,2.6.8,3.9,2.3,4.2c1,.2,1.9-.9,2.2-1.3a.52.52,0,0,1,.4-.2A57.62,57.62,0,0,1,23,53c1,1,1.9,3,2.8,3s3.1-1.7,3.1-3.9c0-2,.1-8.8.1-9.7v-.2C29.35,41.66,30.05,40,29.75,39.36Zm-6.5,9.9a2.57,2.57,0,0,1-1.1-.4c-.4-.2-6.4,1.8-7,1.3s-.3-3.1-.3-3.1a47.22,47.22,0,0,0,7.1-1c.6-.2-.6-3.4-2.6-3.1s-4.6.8-4.6.8v-2.7a61.81,61.81,0,0,1,6.9-1.2c.6-.1,1.4,1.5,1.5,2.3C23.35,43.46,23.25,49.26,23.25,49.26Z"/><path class="cls-1" d="M40.05,103.66c-6.9-1.3-18-8.2-16.9-8.6.7-.2,9.8-.3,12.7-.5a.61.61,0,0,0,.61-.59s0-.08,0-.11c-.1-1.3-.7-3.9-3-3.7a45.61,45.61,0,0,0-6.6.6c-3.3.5-3,.8-4-.4-.4-.5-4-1.5-5.2-1.6-.7,0-1.3-.1-.9-.5a1,1,0,0,1,.6-.2,43.88,43.88,0,0,1,5-.1c.2.2.6,1.1,1.4,1,1.2-.1,2.4-2,2.5-3s0-6.5,0-7.3c-.1-1,.9-2.1.6-3.1-.3-.8-1.4-1.4-3.2-2.2-2.4-1-3.4.1-4.2.1-.5,0-.6-.3-.2-.6,1.1-.9,3.7-2.7,3.7-3.2.1-.8-4-2.6-5.4-2.4-1.2.2-.5,1.5-.5,1.9a19,19,0,0,1-.9,4.6.75.75,0,0,1-.7.5,14.29,14.29,0,0,0-2.6-.3c-.8.2-.1,2.2.4,3.5,1,2.4.3,7.6.3,9.3,0,1.3,4.3,4.9,3.1,5.4s-12.3.9-14.3,1.5c-.8.2,1.7,3.2,3.8,3.3,2.3.1,6-.8,7.6-1,.6-.1-3,3.6-4.2,4.9-1.1,1.1-8.6,6-7.5,5.9a27.87,27.87,0,0,0,7.4-2.4,85.92,85.92,0,0,0,7.7-4.5c.5-.3-.5,3.7-.9,4.8s.6,4.7,2.8,5.1c1.7.3,2.8-2.6,2.9-3.4,0-.3.1-1.3.1-1.4-.1-1-.8-7.2-.4-7.2.7-.1,5.8,7.6,7.3,8.4C30.35,106.66,42.25,104.06,40.05,103.66Zm-20.7-24.9a13.85,13.85,0,0,1-1.7.1c-.3-.1-.3-.5-.3-1V76c0-.3,2.6-.5,3.1-.1.8.7.8,3,.8,4.4s.2,4.5,0,4.5a14.52,14.52,0,0,1-3.7.6c-.4,0-.2-2.9-.2-3.7,0-.2,2.1-.3,2.5-.4C20.75,81.26,20.55,78.76,19.35,78.76Z"/><path class="cls-2" d="M27,79.06c1.4-1.7,2.8-3.1,2.3-4.5s0-1.9.7-1.9,6.1,1.2,6.3,2.8S27,79.06,27,79.06Z"/><path class="cls-2" d="M27.25,81.06c-.2.2-.1.5,0,.7,1.2,1.5,3.9,5.3,4.8,5.8,1.4.7,4.6-2.2,3-4s-7.1-2.6-7.4-2.7A.41.41,0,0,0,27.25,81.06Z"/><path class="cls-2" d="M4.85,75.16c-.2-.5,0-.7.5-.6,2.2.3,5.7,1.6,6,2.5.5,1.3-.8,4-2.4,3.5S5.35,76.46,4.85,75.16Z"/><path class="cls-2" d="M12.15,81.06c-1.4.5-6.5,2.8-8.1,2.7s0,3.1,0,3.1,1.5,2.8,2.1,2.9,3.7-3.6,4-4.4,2.2-3.2,2.4-3.7a.5.5,0,0,0-.38-.6Z"/><ellipse class="cls-3" cx="123.05" cy="113.51" rx="17.4" ry="18.1" transform="translate(-18.75 202.5) rotate(-74.8)"/><ellipse class="cls-4" cx="123.05" cy="113.51" rx="34.9" ry="36.2" transform="translate(-18.75 202.5) rotate(-74.8)"/><ellipse class="cls-5" cx="123.05" cy="113.51" rx="39.3" ry="40.7" transform="translate(-18.75 202.5) rotate(-74.8)"/><ellipse class="cls-4" cx="123.05" cy="113.51" rx="30.5" ry="31.7" transform="translate(-18.75 202.5) rotate(-74.8)"/><ellipse class="cls-4" cx="123.05" cy="113.51" rx="26.2" ry="27.1" transform="translate(-18.75 202.5) rotate(-74.8)"/><ellipse class="cls-6" cx="123.05" cy="113.51" rx="21.8" ry="22.6" transform="translate(-18.75 202.5) rotate(-74.8)"/><ellipse class="cls-7" cx="123.48" cy="112.42" rx="43.78" ry="45.39" transform="translate(-17.08 202.58) rotate(-75)"/><ellipse class="cls-7" cx="123.48" cy="112.42" rx="48.2" ry="49.91" transform="matrix(0.26, -0.97, 0.97, 0.26, -17.08, 202.58)"/><ellipse class="cls-8" cx="123.05" cy="113.51" rx="52.4" ry="54.3" transform="translate(-18.75 202.5) rotate(-74.8)"/><path class="cls-9" d="M179.85,128.86c-8.2,30.2-40.3,47.8-71.6,39.3s-45.7-38.7-37.5-69,35.9-49,67.2-40.5S188.05,98.66,179.85,128.86Z"/><path class="cls-10" d="M184.15,130.06c-8.8,32.6-43.4,51.5-77.1,42.4s-45.2-40.6-36.4-73.2,34.6-53.9,68.4-44.7S193.05,97.46,184.15,130.06Z"/><path class="cls-10" d="M188.55,131.26c-9.5,34.9-46.5,55.2-82.6,45.4s-44.7-42.5-35.2-77.4,33.4-58.8,69.5-48.9S198.05,96.36,188.55,131.26Z"/><path class="cls-1" d="M193,132.46c-10.1,37.2-49.6,58.9-88.1,48.4s-44.2-44.4-34.1-81.6,32.1-63.6,70.7-53.1S203.05,95.16,193,132.46Z"/><path class="cls-1" d="M197.25,133.56c-10.7,39.5-52.7,62.6-93.6,51.4s-43.7-46.3-32.9-85.8,30.8-68.5,71.8-57.4S208.05,94.06,197.25,133.56Z"/><path class="cls-11" d="M201.65,134.76c-11.4,41.9-55.8,66.2-99.1,54.5s-43.6-46.5-32.2-88.4,30-75,73.4-63.2S213.05,93,201.65,134.76Z"/><path class="cls-11" d="M206.05,136c-12,44.2-58.9,69.9-104.6,57.5s-43.2-48.4-31.2-92.6,28.8-79.9,74.5-67.4S218.05,91.76,206.05,136Z"/><path class="cls-12" d="M210.35,137.16c-12.6,46.5-62,73.6-110.2,60.5s-42.1-51.9-29.5-98.4,27-83.1,75.2-70S223.05,90.66,210.35,137.16Z"/><path class="cls-13" d="M214.75,138.36c-13.3,48.8-65,77.3-115.7,63.5s-41.6-53.8-28.4-102.6,25.8-87.9,76.4-74.2S228.05,89.46,214.75,138.36Z"/><path class="cls-13" d="M219.05,139.56c-13.9,51.2-68.1,81-121.2,66.6s-41.1-55.7-27.2-106.9,24.5-92.8,77.5-78.4S233.05,88.36,219.05,139.56Z"/><path class="cls-14" d="M223.45,140.66c-14.5,53.5-71.2,84.6-126.7,69.6s-40.6-57.6-26.1-111.1,23.2-97.7,78.7-82.6S238,87.26,223.45,140.66Z"/><path class="cls-14" d="M227.85,141.86c-15.2,55.8-74.3,88.3-132.2,72.6S55.55,155,70.75,99.16s22-102.5,79.8-86.8S243,86.06,227.85,141.86Z"/><path class="cls-15" d="M232.25,143.06c-15.8,58.1-77.4,92-137.7,75.6S55,157.26,70.75,99.16s20.7-107.4,81-91S248,85,232.25,143.06Z"/><path class="cls-15" d="M236.55,144.26c-16.4,60.5-80.5,95.7-143.2,78.7s-39.1-63.2-22.6-123.7S90.15-13,152.85,4.06,253,83.76,236.55,144.26Z"/></g></g></svg>